#tb 0: 1/25
#media_type 0: video
#codec_id 0: rawvideo
#dimensions 0: 416x240
#sar 0: 0/1
0,          0,          0,        1,   299520, 0x51f394f5
0,          1,          1,        1,   299520, 0xa9d49856
0,          2,          2,        1,   299520, 0xb5d27a47
0,          3,          3,        1,   299520, 0x51f394f5
0,          4,          4,        1,   299520, 0xa9d49856
0,          5,          5,        1,   299520, 0xb5d27a47
